<?xml version="1.0" encoding="UTF-8" standalone="no"?>
<!DOCTYPE svg PUBLIC "-//W3C//DTD SVG 1.1//EN" "http://www.w3.org/Graphics/SVG/1.1/DTD/svg11.dtd">
<svg version="1.1" xmlns="http://www.w3.org/2000/svg" xmlns:xlink="http://www.w3.org/1999/xlink" preserveAspectRatio="xMidYMid meet" viewBox="0 0 170 286" width="170" height="286"><defs><path d="M122.31 53.79L167.08 2.02L148.68 32.42L121.64 59.62L122.31 53.79Z" id="c1lnVDTnOr"></path><path d="" id="b3oKVuZ41E"></path><path d="M100.88 102.77L108.68 106.37C109.14 104.97 109.43 104.1 109.55 103.75C111.89 96.73 115.21 90.08 119.41 83.98C119.63 83.66 120.19 82.86 121.08 81.57L112.68 77.17C112.68 77.17 112.68 77.17 112.68 77.17C107.01 84.54 103.03 93.07 101.01 102.15C100.99 102.23 100.95 102.44 100.88 102.77Z" id="g80ksTy9TJ"></path><path d="M106.08 141.97L114.48 140.77C113.65 139.63 113.14 138.91 112.93 138.63C108.22 132.1 105.75 124.22 105.88 116.17C105.88 116.17 105.88 116.17 105.88 116.17L97.88 113.97C97.86 114.11 97.85 114.2 97.85 114.24C96.96 123.35 99.38 132.48 104.66 139.96C104.85 140.23 105.32 140.9 106.08 141.97Z" id="bY97BNlWy"></path><path d="M125.28 180.57L133.88 180.57C133.57 179.25 133.37 178.43 133.29 178.1C131.04 168.5 126.96 159.43 121.28 151.37C121.28 151.37 121.28 151.37 121.28 151.37L113.48 153.57C114.14 154.52 114.55 155.12 114.71 155.36C119.45 162.24 122.84 169.95 124.7 178.08C124.78 178.41 124.97 179.24 125.28 180.57Z" id="d1jd06vPjA"></path><path d="M111.68 214.97L118.68 220.57C120.14 219.45 121.05 218.76 121.42 218.48C130.17 211.81 134.87 201.12 133.88 190.17C133.88 190.17 133.88 190.17 133.88 190.17L125.88 189.57C125.63 192.04 125.47 193.58 125.41 194.2C124.69 201.32 121.04 207.83 115.35 212.17C114.86 212.54 113.63 213.48 111.68 214.97Z" id="f2EtvvEFVH"></path><path d="M66.48 216.37L65.68 225.57C65.71 225.58 65.73 225.58 65.74 225.59C80.51 230.51 96.47 230.57 111.28 225.77C111.28 225.77 111.28 225.77 111.28 225.77L104.48 219.57C104.48 219.57 104.48 219.57 104.48 219.57C93.37 222.18 81.75 221.6 70.96 217.9C70.36 217.7 68.87 217.19 66.48 216.37Z" id="a1odbPdTVF"></path><path d="M21.48 226.97L15.28 220.37C15.75 220.1 16.05 219.94 16.17 219.87C28.65 212.95 43.15 210.57 57.19 213.13C57.37 213.16 57.79 213.24 58.48 213.37L58.48 222.77C56.73 222.34 55.64 222.07 55.21 221.97C44.19 219.27 32.57 220.82 22.65 226.32C22.49 226.41 22.1 226.62 21.48 226.97Z" id="a23N4Zki8"></path><path d="M10.68 269.57L16.88 262.77C16.71 262.57 16.61 262.44 16.57 262.39C9.93 254.23 9.17 242.77 14.69 233.81C14.81 233.62 15.1 233.14 15.57 232.38L9.68 226.57C9.68 226.57 9.68 226.57 9.68 226.57C0.54 237.96 -0.05 254.01 8.24 266.03C8.57 266.51 9.38 267.68 10.68 269.57Z" id="a7Oly6mH1"></path><path d="M121.41 67.65L132.14 60.39L150.24 30.32L121.08 60.39L121.41 67.65Z" id="h1tRBjWVr8"></path><path d="M153.81 71.52L132.41 59.77L167.68 1.52L167.68 1.52L153.81 71.52ZM121.59 53.83L99.51 41.71L167.68 1.52L167.68 1.52L121.59 53.83Z" id="cw4Pos9rl"></path><path d="M16.68 274.17C18.82 275.52 20.16 276.37 20.7 276.71C30.4 282.83 41.88 285.52 53.3 284.32C54.26 284.22 56.65 283.97 60.48 283.57L59.08 275.77C56.03 276.06 54.12 276.25 53.36 276.32C44.97 277.13 36.53 275.38 29.16 271.28C28.27 270.79 26.04 269.55 22.48 267.57L16.68 274.17Z" id="j1c3JBA1Ue"></path><path d="M132.31 60.33L120.83 68.24L121.39 54.23" id="a1buCvmHA"></path></defs><g><g><g><use xlink:href="#c1lnVDTnOr" opacity="1" fill="#ffffff" fill-opacity="1"></use></g><g><g><use xlink:href="#b3oKVuZ41E" opacity="1" fill-opacity="0" stroke="#000000" stroke-width="1" stroke-opacity="1"></use></g></g><g><use xlink:href="#g80ksTy9TJ" opacity="1" fill="#989898" fill-opacity="1"></use><g><use xlink:href="#g80ksTy9TJ" opacity="1" fill-opacity="0" stroke="#000000" stroke-width="1" stroke-opacity="1"></use></g></g><g><use xlink:href="#bY97BNlWy" opacity="1" fill="#989898" fill-opacity="1"></use><g><use xlink:href="#bY97BNlWy" opacity="1" fill-opacity="0" stroke="#000000" stroke-width="1" stroke-opacity="1"></use></g></g><g><use xlink:href="#d1jd06vPjA" opacity="1" fill="#989898" fill-opacity="1"></use><g><use xlink:href="#d1jd06vPjA" opacity="1" fill-opacity="0" stroke="#000000" stroke-width="1" stroke-opacity="1"></use></g></g><g><use xlink:href="#f2EtvvEFVH" opacity="1" fill="#989898" fill-opacity="1"></use><g><use xlink:href="#f2EtvvEFVH" opacity="1" fill-opacity="0" stroke="#000000" stroke-width="1" stroke-opacity="1"></use></g></g><g><use xlink:href="#a1odbPdTVF" opacity="1" fill="#989898" fill-opacity="1"></use><g><use xlink:href="#a1odbPdTVF" opacity="1" fill-opacity="0" stroke="#000000" stroke-width="1" stroke-opacity="1"></use></g></g><g><use xlink:href="#a23N4Zki8" opacity="1" fill="#989898" fill-opacity="1"></use><g><use xlink:href="#a23N4Zki8" opacity="1" fill-opacity="0" stroke="#000000" stroke-width="1" stroke-opacity="1"></use></g></g><g><use xlink:href="#a7Oly6mH1" opacity="1" fill="#989898" fill-opacity="1"></use><g><use xlink:href="#a7Oly6mH1" opacity="1" fill-opacity="0" stroke="#000000" stroke-width="1" stroke-opacity="1"></use></g></g><g><use xlink:href="#h1tRBjWVr8" opacity="1" fill="#878787" fill-opacity="1"></use></g><g><use xlink:href="#cw4Pos9rl" opacity="1" fill="#ffffff" fill-opacity="1"></use><g><use xlink:href="#cw4Pos9rl" opacity="1" fill-opacity="0" stroke="#000000" stroke-width="1" stroke-opacity="1"></use></g></g><g><use xlink:href="#j1c3JBA1Ue" opacity="1" fill="#989898" fill-opacity="1"></use><g><use xlink:href="#j1c3JBA1Ue" opacity="1" fill-opacity="0" stroke="#000000" stroke-width="1" stroke-opacity="1"></use></g></g><g><g><use xlink:href="#a1buCvmHA" opacity="1" fill-opacity="0" stroke="#000000" stroke-width="1" stroke-opacity="1"></use></g></g></g></g></svg>